<svg viewBox="0 0 1080 357.55" xmlns="http://www.w3.org/2000/svg" data-name="Camada 1" id="Camada_1">
  <defs>
    <style>
      .cls-1 {
        fill: #d1bd80;
      }

      .cls-2 {
        fill: #e8e1d9;
      }
    </style>
  </defs>
  <g>
    <path d="M555.91,258.21c.04-.31.22-.49.67-.49h4.99c.49,0,.76.18.76.76v27.15c0,.58-.27.76-.76.76h-2.76c-.49,0-.76-.18-.76-.76v-22.52h-.18l-5.8,16.32c-.18.45-.45.71-.98.71h-2.85c-.53,0-.76-.22-.94-.71l-5.93-16.36h-.18v22.56c0,.58-.13.76-.76.76h-2.72c-.45,0-.76-.13-.76-.76v-27.15c0-.58.31-.76.76-.76h4.99c.4,0,.58.18.71.49l6.11,17.21h.22l6.15-17.21Z" class="cls-2"></path>
    <path d="M585.03,286.39c-.49,0-.58-.22-.45-.76l7.76-27.15c.18-.58.49-.76,1.07-.76h4.46c.58,0,.94.18,1.07.76l7.76,27.15c.13.53.04.76-.49.76h-3.17c-.53,0-.71-.18-.8-.76l-1.69-5.8h-9.81l-1.69,5.8c-.13.58-.31.76-.8.76h-3.21ZM591.63,276.27h8.07l-3.97-14.27h-.18l-3.92,14.27Z" class="cls-2"></path>
    <path d="M629.7,286.39c-.53,0-.76-.18-.76-.76v-27.15c0-.58.22-.76.76-.76h10.43c4.33,0,6.96,2.59,6.96,6.96v3.75c0,3.34-1.56,5.62-4.24,6.46v.18l4.95,10.43c.36.62-.04.89-.58.89h-2.77c-.8,0-1.11-.13-1.38-.76l-4.77-10.26h-4.5c-.36,0-.54.13-.54.45v9.81c0,.58-.22.76-.76.76h-2.81ZM639.42,271.81c2.23,0,3.3-1.07,3.3-3.26v-3.74c0-2.19-1.07-3.3-3.3-3.3h-5.66c-.31,0-.49.13-.49.45v9.41c0,.31.18.45.49.45h5.66Z" class="cls-2"></path>
    <path d="M677.41,286.39c-4.37,0-6.91-2.54-6.91-6.91v-14.85c0-4.41,2.54-6.91,6.91-6.91h5.17c4.33,0,6.91,2.5,6.91,6.91v2.14c0,.53-.27.8-.8.8h-2.81c-.49,0-.76-.27-.76-.8v-1.96c0-2.19-.98-3.3-3.21-3.3h-3.88c-2.19,0-3.21,1.11-3.21,3.3v14.49c0,2.18,1.03,3.3,3.21,3.3h3.88c2.23,0,3.21-1.11,3.21-3.3v-1.96c0-.53.27-.8.76-.8h2.81c.54,0,.8.27.8.8v2.14c0,4.37-2.59,6.91-6.91,6.91h-5.17Z" class="cls-2"></path>
    <path d="M713.62,286.39c-.53,0-.76-.18-.76-.76v-27.15c0-.58.22-.76.76-.76h14.27c.53,0,.71.27.71.76v2.27c0,.53-.18.76-.71.76h-10.17c-.36,0-.54.13-.54.45v7.53c0,.31.18.45.54.45h8.6c.58,0,.8.22.8.76v2.27c0,.49-.22.76-.8.76h-8.6c-.36,0-.54.13-.54.45v7.94c0,.36.18.49.54.49h10.17c.53,0,.71.22.71.76v2.27c0,.49-.18.76-.71.76h-14.27Z" class="cls-2"></path>
    <path d="M752.86,286.39c-.53,0-.76-.18-.76-.76v-27.15c0-.58.22-.76.76-.76h2.5c.71,0,.94.4.98.49l10.79,19.4h.18v-19.13c0-.58.27-.76.76-.76h2.76c.53,0,.76.18.76.76v27.15c0,.58-.22.76-.76.76h-2.41c-.76,0-1.07-.62-1.16-.71l-10.7-19.17h-.18v19.13c0,.58-.27.76-.76.76h-2.76Z" class="cls-2"></path>
    <path d="M794.28,286.39c-.49,0-.58-.22-.45-.76l7.76-27.15c.18-.58.49-.76,1.07-.76h4.46c.58,0,.94.18,1.07.76l7.76,27.15c.13.53.04.76-.49.76h-3.17c-.53,0-.71-.18-.8-.76l-1.69-5.8h-9.81l-1.69,5.8c-.13.58-.31.76-.8.76h-3.21ZM800.88,276.27h8.07l-3.97-14.27h-.18l-3.92,14.27Z" class="cls-2"></path>
    <path d="M838.95,286.39c-.53,0-.76-.18-.76-.76v-27.15c0-.58.22-.76.76-.76h10.43c4.33,0,6.96,2.59,6.96,6.96v3.75c0,3.34-1.56,5.62-4.24,6.46v.18l4.95,10.43c.36.62-.04.89-.58.89h-2.77c-.8,0-1.11-.13-1.38-.76l-4.77-10.26h-4.5c-.36,0-.54.13-.54.45v9.81c0,.58-.22.76-.76.76h-2.81ZM848.67,271.81c2.23,0,3.3-1.07,3.3-3.26v-3.74c0-2.19-1.07-3.3-3.3-3.3h-5.66c-.31,0-.49.13-.49.45v9.41c0,.31.18.45.49.45h5.66Z" class="cls-2"></path>
    <path d="M884.75,285.64c0,.58-.22.76-.76.76h-2.81c-.53,0-.76-.18-.76-.76v-27.15c0-.58.22-.76.76-.76h2.81c.53,0,.76.18.76.76v27.15Z" class="cls-2"></path>
    <path d="M907.66,286.39c-.49,0-.58-.22-.45-.76l7.76-27.15c.18-.58.49-.76,1.07-.76h4.46c.58,0,.94.18,1.07.76l7.76,27.15c.13.53.04.76-.49.76h-3.17c-.53,0-.71-.18-.8-.76l-1.69-5.8h-9.81l-1.69,5.8c-.13.58-.31.76-.8.76h-3.21ZM914.26,276.27h8.07l-3.97-14.27h-.18l-3.92,14.27Z" class="cls-2"></path>
  </g>
  <g>
    <path d="M413.35,224.74h-16.22V72.72h16.22v152.02ZM431.79,170.67c-6.08-6.37-9.12-13.68-9.12-21.93s3.04-15.42,9.12-21.93l55.54-54.08h23.51l-67.7,66.67c-2.84,2.75-4.26,5.86-4.26,9.34s1.42,6.44,4.26,9.34l67.7,66.67h-23.51l-55.54-54.08Z" class="cls-1"></path>
    <path d="M714.27,224.74h-16.22V72.72h16.22v152.02Z" class="cls-1"></path>
    <path d="M784.72,214.51c-11.49-6.82-20.61-16.04-27.36-27.67-6.76-11.62-10.13-24.32-10.13-38.11s3.38-26.48,10.13-38.11c6.76-11.62,15.88-20.84,27.36-27.67,11.48-6.82,24.05-10.24,37.7-10.24s26.25,3.41,37.8,10.24c11.55,6.83,20.71,16.05,27.47,27.67,6.76,11.62,10.13,24.32,10.13,38.11s-3.38,26.49-10.13,38.11c-6.76,11.62-15.91,20.85-27.47,27.67-11.55,6.82-24.15,10.24-37.8,10.24s-26.22-3.41-37.7-10.24ZM852.32,200.52c9.12-5.34,16.32-12.6,21.59-21.79,5.27-9.19,7.91-19.19,7.91-30s-2.64-20.81-7.91-30c-5.27-9.19-12.47-16.45-21.59-21.79-9.12-5.34-19.09-8.01-29.9-8.01s-20.74,2.67-29.79,8.01c-9.06,5.34-16.22,12.6-21.49,21.79-5.27,9.19-7.91,19.19-7.91,30s2.64,20.81,7.91,30c5.27,9.19,12.43,16.45,21.49,21.79,9.05,5.34,18.98,8.01,29.79,8.01s20.78-2.67,29.9-8.01Z" class="cls-1"></path>
    <path d="M1016.87,218.63c-5.5-4.07-9.34-9.57-11.51-16.49l-28.31-102.22c-1.22-3.39-3.12-6.07-5.7-8.04-2.58-1.97-5.5-2.95-8.76-2.95-4.35,0-8.01,1.46-11,4.38-2.99,2.92-4.48,6.55-4.48,10.89v120.55h-16.29v-120.55c0-6.92,1.66-12.76,4.99-17.51,3.33-4.75,7.43-8.28,12.32-10.59,4.89-2.31,9.64-3.46,14.25-3.46,6.92,0,13.17,2.04,18.73,6.11,5.56,4.07,9.37,9.57,11.4,16.49l28.51,102.22c.95,3.4,2.78,6.08,5.5,8.04,2.71,1.97,5.7,2.95,8.96,2.95,4.48,0,8.15-1.46,11-4.38,2.85-2.92,4.28-6.55,4.28-10.89v-120.46s16.29,0,16.29,0v120.46c0,5.98-1.42,11.37-4.28,16.19-2.85,4.82-6.69,8.59-11.51,11.3-4.82,2.71-10.08,4.07-15.78,4.07-6.92,0-13.13-2.04-18.63-6.11Z" class="cls-1"></path>
    <path d="M634.69,151.56c4.21-.81,8.18-2.4,11.92-4.78,5.68-3.62,10.17-8.47,13.48-14.55,3.31-6.08,4.97-12.67,4.97-19.76s-1.66-13.9-4.97-19.98c-3.31-6.08-7.8-10.89-13.48-14.44-5.67-3.55-11.89-5.32-18.65-5.32h-67.9c-5,0-8.95,1.56-11.86,4.67-2.91,3.11-4.36,7.35-4.36,12.7v134.65h16.22V90.1h67.9c5.81,0,10.74,2.17,14.8,6.51,4.05,4.34,6.08,9.63,6.08,15.85s-2.03,11.33-6.08,15.74c-4.05,4.42-8.99,6.62-14.8,6.62h-21.69c-8.44,0-12.72.87-14.64,6.11-1.77,4.86.73,11.96,7.34,12.38,17.21,1.1,31.66,8.95,43.48,31.46,4.26,8.11,6.39,17.3,6.39,27.58v12.38h16.22v-12.38c0-13.32-2.87-25.45-8.61-36.38-5.36-10.2-12.63-18.33-21.75-24.43Z" class="cls-1"></path>
  </g>
  <path d="M311.57,160.88c0-39.88-15.53-77.38-43.73-105.58-28.2-28.2-65.7-43.73-105.58-43.73s-77.38,15.53-105.58,43.73C28.47,83.51,12.94,121,12.94,160.88s14.12,73.84,39.85,101.53v85.04h7.4V62.39c4.36-4.51,9.01-8.74,13.92-12.65v297.71h7.4V44.25c4.46-3.1,9.11-5.95,13.92-8.53v304.24s0,.03,0,.04v7.45h7.4v-7.49c.02-16.49,11.77-29.95,28.27-29.95h86.02c16.5,0,29.92,13.41,29.94,29.91h0v7.49h7.4v-7.45c0-12.9-6.58-24.3-16.56-31.01v-82.49c0-13.16-10.71-23.87-23.87-23.87s-23.87,10.71-23.87,23.87v21.86s7.39,0,7.39,0v-21.86c0-9.08,7.4-16.47,16.48-16.47s16.47,7.39,16.47,16.47v78.65c-3.98-1.53-8.28-2.4-12.77-2.47v-68.45h-7.4v30.64h-86.17v-81.16c17.15-34.74,45.23-61.25,81.28-76.69,31.2-13.36,62.37-15.88,81.14-13.77l.06-.54c8.54,15.51,14.26,32.78,16.48,51.11-10.84-6.82-28.38-11.77-47.49-13.24-25.71-1.98-50.48,2.61-69.75,12.92-22.29,11.93-47.14,36.71-48.09,87.9v16.96h7.45v-10.14s0-.32,0-.32v-6.56h.01c.83-38.29,15.84-66.18,44.13-81.31,18.04-9.65,41.37-13.94,65.69-12.07,20.16,1.55,38.87,7.31,47.66,14.67l1.1-1.31c.21,3.18.33,6.39.33,9.62,0,34.25-12.21,65.7-32.5,90.25v-28.74c0-30.35-24.69-55.05-55.05-55.05s-55.05,24.69-55.05,55.05v25.97h7.4v-25.97c0-26.27,21.37-47.64,47.64-47.64s47.64,21.37,47.64,47.64v125.06h7.4v-84.98c25.76-27.7,39.9-63.55,39.9-101.59ZM31.46,105.82v110.11c-7.16-16.94-11.12-35.54-11.12-55.05s3.96-38.12,11.12-55.06ZM52.78,251.09c-5.29-6.4-10.02-13.28-14.13-20.55h.21V90.85c4.07-7.13,8.73-13.89,13.92-20.18v180.42ZM243.32,44.47c-50.21,10.54-95.06,43.67-119.15,87.43V24.17c12.13-3.38,24.9-5.2,38.09-5.2,30.12,0,58.07,9.44,81.07,25.5ZM102.84,316.86V32.03c4.52-2.09,9.16-3.96,13.92-5.58v279.14c-5.59,2.48-10.33,6.38-13.92,11.27ZM210.33,272.21v30.39h-79.23c-2.39,0-4.71.24-6.94.67v-31.06h86.17ZM202.53,100.16c-33.36,14.28-60.2,37.64-78.37,68.02v-19.41c21.55-50.34,71.32-88.86,127.02-98.25l-.02-.14c12.23,9.86,22.79,21.7,31.2,35.03-19.96-1.27-49.94,1.96-79.84,14.76Z" class="cls-2"></path>
</svg>